<svg version="1" xmlns="http://www.w3.org/2000/svg" width="933.333" height="933.333" viewBox="0 0 700.000000 700.000000"><path d="M329.8.4c-.1.2-4.1.6-8.8.9-9.2.7-20.9 2.1-30.5 3.7-7.6 1.3-28.6 6-29.5 6.5-.4.2-2 .6-3.6.9-1.6.3-8.3 2.3-14.9 4.5-34.7 11.4-66.4 27.2-94 47-42.2 30.2-74.3 65.2-101 109.9-18.9 31.7-34.3 72.8-41.1 109.7-.9 4.9-1.8 9.9-2 11-.2 1.1-.7 4.2-1 7-.3 2.7-.7 6.1-1 7.5-2.6 15.1-2.5 65.5.1 82.5.3 1.6.7 5 1 7.5.5 4.8.8 6.5 3 18 6.7 35.3 20.2 72.3 37.5 103.2 22.3 39.7 50.7 73 90.1 105.3 3.4 2.8 26.8 19.5 27.3 19.5.2 0 4.3 2.5 9.1 5.5 16.3 10.2 51.7 26.5 69.5 32 5.7 1.7 18.4 5.4 21 6.1 21.4 5.4 38.5 8.3 59.5 10.1 17.5 1.5 61.6.7 71-1.2 1.1-.2 4.5-.7 7.5-1.1 7.7-.9 9.4-1.1 12.7-1.8 1.5-.4 4.2-.9 5.8-1.1 14.7-2.4 42-10.4 60.5-17.7 25.2-10 49.6-23 71.7-38.4 9.8-6.9 26.1-19.6 31.8-24.9 17.2-15.9 33-32.5 41.5-43.5 1.9-2.5 3.7-4.7 4.1-5 .3-.3 4.2-5.7 8.7-12 20.4-29.1 36.2-60.4 46.8-93 3.3-9.9 8-27.4 9-33 .3-1.4.7-3.2.9-4 .2-.8.7-3.1 1-5 .3-1.9 1-5.8 1.5-8.5 1.3-6.7 3-19.2 3.8-29 1.3-17 .5-66.5-1.3-71.8-.2-.7-.6-3.5-.9-6.2-.6-4.8-1.1-8.2-2.1-13.5-1.3-6.1-1.6-7.7-2.1-10.5-.3-1.7-1.8-8.2-3.4-14.5-16.8-66.7-53.9-127.5-106.1-173.9-13.8-12.3-14.8-13.1-26.4-21.6-44.9-32.7-98.5-55.1-151-63.1-2.7-.4-5.2-.8-5.5-.9-.3-.1-3.9-.5-8-.9s-8.8-1-10.5-1.2c-3.4-.6-51.1-1.4-51.7-1zm38.7 23.1c14.4.7 16.8.9 30.5 3 15 2.3 15.8 2.5 29 5.7 43 10.4 84.1 30.1 120.5 57.6 5.5 4.2 10.5 8.1 11.1 8.7.7.5 5.6 5 11 10 41 37.4 70.5 82.5 89.8 137.2 6.2 17.6 13.4 51.1 15.3 71.3 1.6 16.7.8 67.2-1.2 76.4-.2 1.1-.7 3.9-1 6.1-3 22.4-11.2 51.8-20.9 75.5-20.1 49-57.7 99.1-97.6 130-2.5 1.9-5 3.9-5.6 4.5-2.8 2.5-5.6 4.5-15.4 11.1-26.7 18-52.1 30.5-81.8 40.3-11.3 3.8-32.8 9.4-40.2 10.5-1.9.3-4.6.8-6 1.1-3.6.7-23.2 3.3-25 3.3-.8-.1-4.6.3-8.5.7-6.9.7-39.1.8-45 .1-1.6-.2-6.6-.6-11-1s-8.7-.9-9.5-1.1c-.8-.2-3.5-.6-6-.9-2.5-.3-5.6-.8-7-1.1-1.4-.3-4.1-.8-6-1.1-14.9-2.5-39.9-9.8-58.5-17.1-103.7-41-179.9-133.1-200.9-242.8-2.9-15.4-3.2-17.3-5.1-38-.6-6.4-.6-40.6 0-46.5.3-2.5.7-7 .9-10.2.6-6.8 2.6-22 3.1-22.8.2-.3.6-2.6 1-5 3.7-24.7 16.6-62 31.1-90 21.5-41.3 51.1-76.7 90-107.8 12.4-10 36.8-25.3 53.5-33.7 22.1-11.2 56-23.3 74.9-26.9 1.4-.3 5-1 8-1.6 3-.6 7.1-1.3 9-1.6 1.9-.3 4.2-.7 5-.9.8-.2 3.8-.7 6.5-1 2.8-.3 7-.8 9.5-1 2.5-.3 11.7-.8 20.5-1.2 8.8-.3 16.2-.7 16.3-.9.2-.1.9-.1 1.5.1.7.2 7.1.6 14.2 1z"/><path d="M339.7 48.6c-.1.1-5.3.4-11.5.8-10.9.6-16.4 1.2-33.4 4.2-15.4 2.6-37.2 8.8-54.8 15.7-14.8 5.7-17 7.7-17 15.3 0 2.8.8 4.4 3.4 7 4 4 8.3 4.5 14.9 1.5 16.8-7.5 47.3-16.1 66.3-18.7 2.7-.3 5.1-.7 5.4-.9 3-1.8 49.2-2.7 63-1.2 28.5 3 56 9.8 80.4 19.9 9.3 3.8 12.9 3.7 17.2-.6 4.1-4.1 4.6-6.9 2.2-13-.9-2.2-2.9-3.7-8.7-6.4-14.1-6.5-46-16.1-62.1-18.7-2.5-.4-5.4-.9-6.5-1.1-4-.9-17.2-2.4-25-3-7.3-.6-33.3-1.2-33.8-.8zM327.8 97.5c-.2.2-3.2.6-6.8 1-3.6.3-7.2.8-8 1-.8.2-3.5.7-6 1-8.9 1.2-28.7 6.4-40 10.5-6.3 2.3-12.4 4.4-13.5 4.7-4.9 1.5-33 16.5-42 22.5-54.7 36.1-93.2 91.2-108 154.3-2.4 10.4-3 13.4-4.5 25-1.7 13.1-2 18-2 32.5.1 23.5 1.9 38.8 7.1 60 13.4 54.4 44.7 103.3 88.4 138 18.4 14.7 44.6 29.9 65.1 37.8 9 3.5 29.7 9.9 34.7 10.7 1.7.3 4.8 1 6.7 1.5 4.1 1 8.6 1.8 15.5 2.6 2.8.3 7.7.9 11 1.4 3.3.5 15.9.7 28 .5 20.2-.3 24.1-.5 33-2 1.7-.2 4.8-.7 7-1.1 2.2-.3 6-1 8.5-1.6 2.5-.5 5.2-1.1 6-1.3 14.9-3.2 36.7-11.1 54.5-20 41.7-20.6 76.7-52.2 102.2-92.5 4.9-7.7 16.3-29.9 20.4-39.5 4.4-10.5 12.7-39.8 14.3-50.8 1.4-8.7 1.6-10.6 2.5-18.2 1.2-10 1.2-40.2 0-51.5-.9-7.5-2.8-19.7-4.3-27-.3-1.4-.8-3.9-1.2-5.5-1.4-7.2-7.2-24.8-12-36.7-15-37-36.8-67.6-67.9-95.3-26.3-23.3-59-41.4-93.8-51.9-25.5-7.7-44.2-10.3-72.9-10.4-11.9 0-21.8.1-22 .3zm43.1 22.9c38.9 3.8 75 16.6 107.1 38.1 57.7 38.7 95.8 102.7 101.6 171 1.3 14.6.7 40.5-1 50.2-.2 1-.7 4-1 6.6-.7 4.6-1 6.1-2 11.2-8.4 40.5-29.7 80.9-58.8 111.3-6.5 6.9-20.4 19.5-24.2 22.1-1.1.8-2.3 1.8-2.6 2.1-.3.3-3.4 2.6-7 5.1-39.5 27.9-85.4 42.4-133.5 42.3-10.1-.1-25.5-1-30.1-1.8-1-.2-3.7-.7-5.9-1.1-2.2-.4-5.1-.8-6.5-1-8.8-1.2-28.3-6.9-41.2-12.1-10.6-4.2-27.7-12.5-31.8-15.4-1.6-1.1-3.1-2-3.4-2-1.2 0-15-9.6-23.2-16.1-33-26.1-57.9-60.2-73-99.7-4.5-11.8-10.5-34-12-44.2-1.2-8.7-1.2-9-2-19-4-48.2 7.5-96.3 32.8-137.9 4-6.6 11.8-17.8 14.9-21.6 16.4-19.8 27-30.1 43.6-42.6 34.7-26.1 76.8-42.3 118.1-45.5 4.3-.3 7.8-.7 7.9-.8.5-.4 27.5.2 33.2.8z"/><path d="M322 135c-6.9.9-13.4 2-14.5 2.3-1.1.3-3.4.9-5 1.1-10.5 1.8-35.2 10.4-48 16.9-45.1 22.5-82.8 61.8-102.8 107.2-12.3 27.9-17.7 52.5-18.2 84-.4 23 1.4 38.5 7 59.5 13.9 52.1 48.3 98.5 95 128.1 20.1 12.8 51.2 25.2 71.4 28.5 1.8.3 4.3.8 5.5 1 15.5 3.3 49.5 4 67.1 1.4 78.2-11.4 144.7-64.1 173-137.3 4.3-11.3 9.8-30.7 11-39.5.2-1.5.9-5.9 1.5-9.7 2.6-15.8 1.8-51.2-1.4-66.8-.3-1.5-.8-3.9-1.1-5.5-11.7-60.5-54.3-117.3-110.5-147.5-15.8-8.5-39.1-17.3-53-20.1-1.4-.3-3.6-.8-5-1.1-19.9-4.4-49.5-5.5-72-2.5zm40 21.4c11.6.7 24.1 2.5 34 5.1 3.6.9 7.4 1.9 8.6 2.1 4.2.8 23.2 8.3 31.3 12.3 32.4 16.4 59.8 41.3 78.9 71.7 6.4 10.3 13.3 24 16.2 32.4 1.2 3.6 2.6 7.2 3.1 8 1.2 2.5 6.7 25 7.4 30.5.3 2.7.8 5.9 1.1 7 1.4 6.4 2 30.9.9 41.8-4.4 45.4-23.8 86.7-55.8 119.1-30 30.2-67.2 49.2-108.7 55.5-11.9 1.8-14.8 2-27.5 2.1-73.6.6-140.8-40.4-174.7-106.5-9.2-18-15.3-37.2-18.8-59.5-1.7-10.7-1.9-13.9-1.9-27.5 0-18.9 1.4-30.3 6-48.5 8.6-34.1 25.2-63.2 50.8-89 9.3-9.4 28.8-25.2 33.1-26.8.8-.3 3.1-1.7 5-3 13.4-9.1 43.9-20.8 62.5-23.8 1.7-.3 5.5-.9 8.5-1.5s10-1.3 15.5-1.6c5.5-.3 10.1-.7 10.3-.8.2-.2 1.1-.1 2 .1.9.1 6.4.5 12.2.8z"/><path d="M338.5 169.7c-60.6 5.2-110.9 35.6-142.2 85.8-11 17.7-20.9 43.1-23.7 61-.2 1.6-1 6.3-1.6 10.3-2 12.1-1.7 38.9.6 50.7.3 1.6.9 5 1.4 7.5 8.8 47.7 39.4 91.7 82.5 118.7 13.8 8.6 34.4 17.5 48.2 20.7 3.4.7 6.5 1.6 7 1.9.4.3 3.3.8 6.3 1.2 3 .4 5.8.9 6.1 1.1 3.2 1.9 38.3 2.2 50.3.4 12.3-1.8 12.6-1.9 22.6-4.5 56.7-14.7 103.6-57.7 123.8-113.5 3.6-9.8 6.8-21.6 7.7-28 .3-2.5 1.1-7.2 1.7-10.5 1.4-8.2 1.4-36.2-.1-45.8-1.9-11.9-2.1-12.7-3.7-19.2-.9-3.3-1.7-7-2-8.2-1.6-8.1-12.4-32.1-19.7-43.8-29-46.4-75.5-76.7-129.7-84.4-7.2-1.1-29.3-1.9-35.5-1.4zm31 23.6c1.1.3 2.8.6 3.7.6 1.5.1 1.7 4.4 1.7 56.6 0 31.1-.2 56.5-.4 56.5s-22.2-21.9-48.9-48.6L277 209.8l8.3-3.7c14.2-6.5 28.3-10.5 46.2-13 5.4-.8 34.7-.6 38 .2zm51 15.7c18.8 9.4 36.7 23.5 50.9 40 7.4 8.6 10.4 4.2-32.6 47.1-21.1 21.1-39 38.9-39.9 39.6-1.3 1-1.4-7-1.4-67.6v-68.8l5.5 1.9c3 1 10.9 4.6 17.5 7.8zm-123 53.5c21.7 21.7 39.5 39.6 39.5 39.8 0 .1-30.7.2-68.2.2-52.2 0-68.2-.3-68.5-1.2-.7-1.9 8.4-22.4 13.8-31.5 6.5-10.8 14.6-21.3 23.3-30.3 7.6-7.7 18-16.5 19.7-16.5.5 0 18.7 17.8 40.4 39.5zm204 43.6c1.8 6.3 3.6 13.3 3.9 15.5.3 2.1 1 6.8 1.5 10.4.9 6.4.7 34.6-.3 38.5-.2 1.1-.5 2.5-.5 3.2-.1.9-13.8 1.2-56.6 1.2-31.1 0-56.5-.2-56.5-.4 0-.1 21.9-22.2 48.6-48.9l48.7-48.7 3.9 8.8c2.2 4.8 5.5 14 7.3 20.4zm-196.7 21.6c-1.3 1.4-23.1 23.4-48.6 48.9l-46.3 46.3-3.6-7.7c-4.8-10.6-8.8-22.8-11.4-35.2-1.8-8.7-2.2-13.7-2.2-29 0-10.2.2-19.6.6-21 .3-1.4.6-3 .6-3.6.1-.9 15.2-1.2 56.7-1.2h56.5l-2.3 2.5zm62.7 4.8l7.3 7.3.1 10.1.2 10-7.5 7.5-7.5 7.5-10.2-.1-10.1-.1-7.3-7.2-7.2-7.2-.1-10.2v-10.2l7.3-7.4 7.3-7.3h20.4l7.3 7.3zm-65 99.4v68.8l-6.5-2.4c-25.1-9.2-49.3-26.1-66-46.1l-7.9-9.4 40-39.9c21.9-21.9 40-39.9 40.2-39.9.1 0 .2 31 .2 68.9zm71.9 9.7l48.6 48.5-8.3 3.8c-21.5 9.9-42.3 14.1-67.7 13.6-8.5-.1-17-.6-18.7-1l-3.3-.7.2-56.4c.1-31 .2-56.4.4-56.4.1 0 22.1 21.9 48.8 48.6zM498.3 404c-3.8 10-9 20.7-14.1 29-2.5 4.1-4.8 7.7-5.1 8-.4.3-2.6 3.2-5.1 6.4-7.8 10.4-28 29.6-31.1 29.6-.8 0-79.9-78.5-79.9-79.3 0-.1 31-.2 68.9-.2h68.8l-2.4 6.5zM226.6 608.4c-6.2 5.8-4.6 14.1 3.3 18 17.1 8.6 57.4 20 77.6 22.1.6.1 3.9.5 7.5.9 3.6.5 7.7.9 9.2 1.1 4.1.5 10.5-3.1 11.7-6.7 1.6-4.4 1.4-6.9-.8-10.4-2.5-4.2-5.3-5.1-22.1-7.3-24.4-3.3-42.2-7.9-64.3-16.5-14.5-5.6-17.3-5.8-22.1-1.2zM460.4 605.9c-1.4 1.3-22 8.6-33.4 12-10.7 3.1-31.5 7.5-40.5 8.5-18 2.1-18.8 2.3-21.5 6.8-5.2 8.6 1.4 18.2 12 17.2 13.1-1.2 23.1-2.7 34-5 26.5-5.7 57.9-16.6 63.4-22.1 3.8-3.7 3.6-10.1-.3-14.5-2.4-2.7-3.6-3.2-7.8-3.4-2.8-.1-5.4.1-5.9.5z"/></svg>